<svg version="1.1" xmlns="http://www.w3.org/2000/svg" style="display: block;" viewBox="0 0 2048 2048" width="1024" height="1024">
<path transform="translate(0,0)" fill="rgb(41,32,44)" d="M 0 0 L 2048 0 L 2048 2048 L 0 2048 L 0 0 z"/>
<path transform="translate(0,0)" fill="rgb(254,254,254)" d="M 843.997 427.531 L 844.812 428.136 C 845.832 433.165 844.274 439.632 843.671 444.741 C 808.377 448.864 773.095 452.866 738.027 458.675 A 1657.38 1657.38 0 0 0 409.336 548.716 C 394.286 620.934 387.404 694.532 382.693 768.026 L 375.432 760.819 L 366.884 753.332 C 367.214 739.319 368.764 725.055 369.953 711.072 C 375.005 651.63 385.106 595.576 393.827 536.873 A 1573.66 1573.66 0 0 1 843.997 427.531 z"/>
<path transform="translate(0,0)" fill="rgb(254,254,254)" d="M 1200.53 427.703 C 1299.13 434.31 1418.47 459.038 1513.36 487.24 C 1561.07 501.422 1607.52 518.076 1654.49 534.43 C 1668.65 607.534 1680.48 682.011 1682.1 756.574 L 1676.43 761.362 L 1666.19 769.965 A 1259.02 1259.02 0 0 0 1651.2 614.55 C 1647.77 592.168 1644.29 569.795 1638.89 547.787 C 1625.13 543.468 1611.73 537.699 1598.12 532.886 C 1572.78 523.924 1546.93 515.591 1521.19 507.845 A 1736.11 1736.11 0 0 0 1203.37 445.227 A 523.068 523.068 0 0 1 1200.53 427.703 z"/>
<path transform="translate(0,0)" fill="rgb(254,254,254)" d="M 572.801 1217.43 C 583.461 1220.87 593.68 1226.43 604.136 1230.56 A 846.067 846.067 0 0 0 665.036 1360.52 C 748.707 1502.54 880.685 1621.7 1024.91 1700.17 C 1053.34 1685.22 1081.34 1666.76 1107.8 1648.63 C 1256.45 1546.74 1382.26 1402.23 1446.43 1232.36 C 1455.68 1227.89 1464.87 1223.53 1474.42 1219.74 C 1472.63 1224.97 1470.48 1230.1 1468.47 1235.25 C 1394.96 1415.3 1267.33 1564.51 1106.75 1672.97 C 1080.1 1690.97 1052.26 1707.34 1024.34 1723.28 C 867.809 1629.94 758.205 1539.73 658.35 1385.45 C 624.441 1333.06 593.898 1276.26 572.801 1217.43 z"/>
<path transform="translate(0,0)" fill="rgb(254,254,254)" d="M 1816.68 857.872 C 1816.67 858.92 1816.72 859.181 1816.4 860.335 C 1811.76 877.103 1788.71 911.528 1778.45 927.303 A 760.651 760.651 0 0 1 1557.66 1148.49 C 1525.24 1169.62 1491.74 1187.66 1457.41 1205.41 C 1455.88 1198.13 1464.39 1175.52 1466.59 1167.44 A 1165.05 1165.05 0 0 0 1489.58 1067.11 C 1518.97 1056.85 1546.95 1041.37 1575.03 1027.92 C 1669.9 982.489 1750.35 942.177 1816.68 857.872 z"/>
<path transform="translate(0,0)" fill="rgb(254,254,254)" d="M 229.977 860.526 C 237.334 864.639 253.809 885.319 261.093 892.648 C 270.493 902.106 280.496 911.267 290.817 919.708 C 362.728 978.523 470.343 1034.76 558.866 1062.68 C 564.56 1090.6 570.307 1118.6 577.589 1146.16 C 582.832 1165.99 589.393 1185.45 594.494 1205.32 A 767.264 767.264 0 0 1 229.977 860.526 z"/>
<path transform="translate(0,0)" fill="rgb(254,254,254)" d="M 226.101 607.874 C 232.131 613.699 240.281 630.058 245.479 638.061 A 1005.87 1005.87 0 0 0 280.691 688.622 C 337.869 765.036 414.269 835.628 497.771 882.326 C 511.9 890.227 526.391 898.709 541.613 904.32 C 542.823 949.809 547.847 994.67 555.046 1039.56 C 523.109 1026.78 492.758 1012.23 464.571 992.389 C 371.319 926.731 307.088 831.994 263.378 727.919 C 247.449 689.991 233.105 648.484 226.101 607.874 z"/>
<path transform="translate(0,0)" fill="rgb(254,254,254)" d="M 1825.04 606.92 C 1829.32 621.744 1791.92 718.602 1784.09 736.331 C 1733.37 851.169 1649.14 958.925 1538.08 1020.37 C 1523.63 1028.37 1508.83 1036.45 1493.4 1042.41 C 1492.15 1029.89 1498.16 1001.4 1499.71 987.508 A 1011.2 1011.2 0 0 0 1505.31 903.97 C 1521.53 897.28 1536.87 888.67 1552.17 880.126 A 699.549 699.549 0 0 0 1755 707.261 C 1780.59 675.504 1803.08 641.245 1825.04 606.92 z"/>
<path transform="translate(0,0)" fill="rgb(254,254,254)" d="M 1681.9 1074.9 L 1682.67 1075.81 C 1683.66 1084.72 1679.76 1096.37 1677.87 1105.21 A 1058.77 1058.77 0 0 1 1639.72 1243.71 A 1098.83 1098.83 0 0 1 1237.25 1775.5 A 1430.34 1430.34 0 0 1 1024.58 1897.75 A 1465.14 1465.14 0 0 1 827.95 1787.9 A 1080.09 1080.09 0 0 1 368.692 1096.74 C 367.276 1089.91 366.287 1083 365.228 1076.11 C 372.102 1082.63 378.469 1089.41 384.77 1096.48 C 387.347 1110.38 391.283 1124.18 394.783 1137.88 A 1298.69 1298.69 0 0 0 424.365 1237.74 A 1055.83 1055.83 0 0 0 835.001 1772.15 C 895.677 1813.3 958.712 1847 1024.49 1879.13 C 1059.42 1864.15 1093.01 1844.82 1126.04 1826.07 C 1353.84 1696.77 1530.92 1496.36 1620.08 1249.02 A 1078.91 1078.91 0 0 0 1650.08 1152.65 C 1654.07 1137.09 1657.6 1108.1 1663.62 1095.53 C 1667.22 1088.01 1675.99 1080.87 1681.9 1074.9 z"/>
<path transform="translate(0,0)" fill="rgb(254,254,254)" d="M 841.812 466.478 C 844.246 468.909 844.842 485.294 845.839 490.021 C 848.651 503.345 853.915 515.637 859.426 528.01 C 753.086 582.108 638.76 614.327 522.05 637.201 C 518.127 662.194 513.852 687.239 510.909 712.368 C 505.259 760.613 502.744 810.557 502.911 859.141 C 486.406 849.094 469.878 839.202 453.984 828.197 C 436.641 816.023 420.451 802.518 404.274 788.862 C 405.242 780.234 404.865 771.202 405.226 762.507 A 1409.98 1409.98 0 0 1 408.137 718.681 A 1266.34 1266.34 0 0 1 428.991 565.368 C 454.567 556.541 479.522 546.085 505.287 537.709 A 1566.87 1566.87 0 0 1 841.812 466.478 z"/>
<path transform="translate(0,0)" fill="rgb(254,254,254)" d="M 1203.22 466.776 C 1234.11 468.117 1268.36 474.296 1298.91 479.316 A 1750.91 1750.91 0 0 1 1508.07 526.468 C 1546.08 537.728 1583.21 551.047 1620.65 563.983 A 1375.51 1375.51 0 0 1 1644.39 789.593 A 716.785 716.785 0 0 1 1598.35 824.894 C 1580.79 837.483 1562.66 848.349 1543.95 859.171 C 1544.81 817.268 1544.14 775.667 1540.66 733.867 C 1537.99 701.831 1533.31 670.053 1530.46 638.071 C 1408.46 616.537 1298.39 583.269 1188.15 526.053 C 1196.83 506.476 1201.34 488.083 1203.22 466.776 z"/>
<path transform="translate(0,0)" fill="rgb(254,254,254)" d="M 1023.53 89.6972 C 1026.88 92.949 1030.96 113.803 1032.54 119.812 C 1050.07 186.525 1064.8 252.013 1073.34 320.524 C 1089.48 325.741 1105.15 332.939 1119.09 342.653 A 148.743 148.743 0 0 1 1179.55 437.584 C 1185.78 473.43 1176.94 505.426 1156.42 534.894 C 1179.19 546.937 1202.01 559.18 1225.44 569.9 C 1316.56 611.592 1412.42 638.07 1510.62 656.712 C 1514.72 674.655 1515.95 694.095 1517.61 712.398 C 1522.39 765.38 1523.18 817.628 1522.88 870.775 C 1517.18 873.447 1511.44 875.849 1505.57 878.13 C 1504.36 853.198 1505.41 828.08 1504.64 803.111 A 1426.23 1426.23 0 0 0 1494.55 672.227 C 1469.93 667.122 1445.1 662.435 1420.69 656.429 C 1306.01 628.223 1189.95 584.785 1095.23 512.866 C 1079.28 500.755 1062.86 487.597 1048.9 473.204 C 1040.86 464.914 1033.19 452.617 1024.28 445.835 L 1022.37 447.627 C 1005.84 469.436 984.059 488.251 962.724 505.255 C 888.977 564.036 805.19 601.38 716.109 630.573 A 1065.55 1065.55 0 0 1 556.377 670.529 C 543.849 739.772 542.959 811.591 541.625 881.8 L 524.014 872.284 C 523.552 800.581 528.414 726.267 541.1 655.715 A 1151.79 1151.79 0 0 0 891.345 535.195 C 882.398 524.345 875.609 513.924 870.958 500.582 C 859.632 468.088 862.994 430.88 878.208 400.205 C 898.478 359.334 933.4 334.298 975.928 320.082 C 976.533 298.139 980.886 275.528 984.853 253.988 C 995.041 198.669 1009.47 144.135 1023.53 89.6972 z"/>
<path transform="translate(0,0)" fill="rgb(254,254,254)" d="M 1636.69 1116.79 C 1637.5 1127.46 1625.05 1166.42 1621.56 1178.33 C 1549.15 1425.4 1391.83 1628.68 1177.82 1769.61 A 1451.29 1451.29 0 0 1 1088.3 1822.94 C 1067.18 1834.29 1045.59 1844.71 1024.57 1856.23 C 1002.3 1844.96 980.223 1833.24 958.14 1821.61 C 936.851 1810.41 916.194 1797.51 895.678 1784.95 A 1061.36 1061.36 0 0 1 563.746 1471.22 C 553.209 1455.41 543.741 1438.81 534.039 1422.48 A 1047.1 1047.1 0 0 1 436.147 1204.24 C 426.886 1175.56 418.139 1146.43 410.828 1117.2 C 427.143 1128.27 441.984 1141.63 458.263 1152.85 C 486.108 1172.04 515.86 1188.22 545.248 1204.86 L 545.764 1206.64 C 557.193 1245.22 575.932 1282.87 594.194 1318.64 C 689.132 1504.59 841.131 1649.21 1024.59 1747.1 C 1053.85 1732.21 1081.92 1714.7 1109.32 1696.66 C 1224.68 1620.72 1327.46 1523.2 1402.61 1406.8 C 1443.42 1343.59 1475.79 1275.17 1503.09 1205.18 C 1513.4 1200.9 1523.48 1194.75 1533.13 1189.15 C 1569.83 1167.83 1603.34 1142.93 1636.69 1116.79 z"/>
<path transform="translate(0,0)" fill="rgb(254,254,254)" d="M 1024.02 543.858 C 1031.39 549.279 1038.22 555.855 1045.29 561.699 A 532.644 532.644 0 0 0 1083.4 590.416 C 1189.34 662.986 1304.08 705.337 1428.25 734.511 C 1437.54 844.573 1437.7 972.435 1414.39 1080.31 A 816.598 816.598 0 0 1 1144.01 1529.16 C 1106.74 1560.87 1066.08 1588.7 1024.98 1615.16 C 1018.47 1614.09 1001.55 1601.11 995.358 1597.01 C 924.988 1550.37 860.76 1496.63 805.687 1432.44 C 678.973 1284.74 620.974 1096.29 615.173 903.763 C 613.458 846.862 616.791 790.189 621.155 733.49 C 736.959 706.964 835.234 670.331 936.633 607.558 C 967.292 588.578 997.518 568.422 1024.02 543.858 z"/>
<path transform="translate(0,0)" fill="rgb(41,32,44)" d="M 1010.55 673.478 C 1011.74 693.737 1010.86 714.36 1010.57 734.649 L 1009.53 822.806 L 1007.95 1106 C 940.187 1104.08 880.658 1083.01 824.1 1046.66 C 812.714 1039.02 802.033 1030.95 791.927 1021.67 C 821.34 1036.54 852.469 1052.22 885.705 1055.46 C 904.802 1057.31 928.263 1054.52 943.436 1041.71 C 958.549 1028.96 966.296 1008.56 971.881 990.173 C 984.175 949.708 988.268 906.414 992.867 864.527 C 999.851 800.922 1004.49 737.161 1010.55 673.478 z"/>
<path transform="translate(0,0)" fill="rgb(41,32,44)" d="M 1039.46 695.748 C 1041.97 747.36 1049.61 799.507 1055.61 850.854 C 1060.26 890.663 1063.47 933.918 1071.17 973.008 C 1073.25 983.542 1075.98 993.748 1080.59 1003.48 C 1090.82 1025.08 1108.63 1041.68 1131.29 1049.52 C 1176.62 1065.19 1217.73 1042.71 1257.82 1023.46 C 1247.47 1031.73 1236.51 1039.33 1225.5 1046.69 C 1168.4 1083.65 1107.34 1101.22 1039.98 1106.92 L 1039.98 818.535 C 1039.93 777.791 1037.14 736.412 1039.46 695.748 z"/>
<path transform="translate(0,0)" fill="rgb(41,32,44)" d="M 741.275 1007.65 C 743.874 1009.01 777.592 1042.75 785.175 1048.89 C 850.677 1101.93 923.858 1132.46 1008.22 1137.96 A 8700.17 8700.17 0 0 0 1007.99 1293.78 L 1006.64 1544.22 L 1005.73 1544.38 C 1004.37 1539.17 1004.61 1532.8 1004.08 1527.37 A 3387.91 3387.91 0 0 1 999.283 1476.6 A 5077.1 5077.1 0 0 0 983.588 1321.57 C 980.233 1292.07 978.593 1261.02 970.214 1232.48 C 949 1160.21 883.06 1142.54 828.652 1102.39 A 331.314 331.314 0 0 1 741.275 1007.65 z"/>
<path transform="translate(0,0)" fill="rgb(41,32,44)" d="M 1333.92 996.972 L 1334.49 998.152 C 1297.18 1039.57 1243.41 1089.24 1196.09 1119.49 C 1173.03 1134.23 1147.47 1145.38 1125.5 1161.74 C 1104.93 1177.05 1090.04 1197.33 1081.16 1221.35 C 1069.65 1252.47 1068.08 1289.31 1064.53 1322.22 A 10418.2 10418.2 0 0 0 1050.89 1461.9 C 1048.34 1488.95 1046.46 1516.35 1042.44 1543.22 C 1038.94 1495.02 1040.67 1445.78 1040.54 1397.44 L 1040.21 1137.77 C 1165.95 1131.56 1239.84 1073.77 1333.92 996.972 z"/>
</svg>